<svg xmlns="http://www.w3.org/2000/svg" width="220" height="220" viewBox="0 0 220 220" fill="none">
  <defs>
    <radialGradient id="tag-latent-human-variable-field" cx="0" cy="0" r="1" gradientUnits="userSpaceOnUse" gradientTransform="translate(105 76) rotate(42) scale(108 114)">
      <stop stop-color="#fffdf2"/>
      <stop offset=".28" stop-color="#e9e4c8"/>
      <stop offset=".66" stop-color="#a3b78b"/>
      <stop offset="1" stop-color="#5f7256"/>
    </radialGradient>
    <radialGradient id="tag-latent-human-variable-inner" cx="0" cy="0" r="1" gradientUnits="userSpaceOnUse" gradientTransform="translate(110 110) scale(58)">
      <stop stop-color="#fffdf6"/>
      <stop offset=".7" stop-color="#fffdf6" stop-opacity=".9"/>
      <stop offset="1" stop-color="#fffdf6" stop-opacity=".34"/>
    </radialGradient>
    <filter id="tag-latent-human-variable-shadow" x="18" y="16" width="184" height="188" filterUnits="userSpaceOnUse" color-interpolation-filters="sRGB">
      <feDropShadow dx="0" dy="12" stdDeviation="12" flood-color="#2e3b37" flood-opacity=".16"/>
    </filter>
    
    <style>
      .ink { stroke: #18382f; stroke-width: 7; stroke-linecap: round; stroke-linejoin: round; fill: none; }
      .thin { stroke: #18382f; stroke-width: 5; stroke-linecap: round; stroke-linejoin: round; fill: none; }
      .soft { stroke: #a79263; stroke-width: 5; stroke-linecap: round; stroke-linejoin: round; fill: none; }
      .hair { stroke: #a79263; stroke-width: 3.5; stroke-linecap: round; stroke-linejoin: round; fill: none; opacity: .82; }
      .paper { fill: #fffdf6; }
      .paper-stroke { fill: #fffdf6; stroke: #18382f; stroke-width: 7; stroke-linecap: round; stroke-linejoin: round; }
      .soft-paper { fill: #fffdf6; stroke: #a79263; stroke-width: 5; stroke-linecap: round; stroke-linejoin: round; }
      .ink-fill { fill: #18382f; }
    </style>
    
  </defs>
  <circle cx="110" cy="110" r="100" fill="#fbfaf6"/>
  <g filter="url(#tag-latent-human-variable-shadow)">
    <path d="M110 28 137 47l33 4 7 31 21 24-13 29 1 32-31 10-22 25-33-8-33 8-22-25-31-10 1-32-13-29 21-24 7-31 33-4Z" fill="url(#tag-latent-human-variable-field)" stroke="#5f7256" stroke-width="5" stroke-linejoin="round"/>
    <circle cx="110" cy="110" r="61" fill="url(#tag-latent-human-variable-inner)" opacity=".86"/>
    <circle cx="110" cy="110" r="48" fill="#fffdf6" opacity=".26"/>
    <g transform="translate(110 110)">
      
      <circle cx="0" cy="0" r="51" class="paper-stroke"/>
      <path class="hair" d="M0 -27v-25M0 27v25M-27 0h-25M27 0h25"/>
      <circle cx="0" cy="0" r="17" class="ink-fill" opacity=".82"/>
      <path d="M0 -36 8 -17 28 -15 13 -1 16 19 0 8-16 19-13 -1-28 -15-8 -17Z" class="paper" opacity=".58"/>
    
    </g>
  </g>
</svg>
